<?xml version="1.0" encoding="utf-8"?>
<!-- Generator: Adobe Illustrator 26.2.1, SVG Export Plug-In . SVG Version: 6.00 Build 0)  -->
<svg version="1.1" id="Layer_1" xmlns="http://www.w3.org/2000/svg" xmlns:xlink="http://www.w3.org/1999/xlink" x="0px" y="0px"
	 viewBox="0 0 653 206" style="enable-background:new 0 0 653 206;" xml:space="preserve">
<style type="text/css">
	.st0{fill:#FFFFFF;}
</style>
<path class="st0" d="M168.4,70.7c-1.2-9.8-9.5-17.2-19.4-17.2h-11.4v-6.4C137.6,21,116.2-0.2,90,0.2C64.2,0.6,43.8,22.1,43.8,47.8
	v5.7H32.4c-9.9,0-18.2,7.4-19.4,17.2l-12.7,106c-0.9,7.4,1.4,14.8,6.3,20.3s12,8.7,19.4,8.7h129.4c7.4,0,14.5-3.2,19.4-8.7
	s7.2-12.9,6.3-20.3L168.4,70.7z M58.8,47.7c0-17.8,14.6-32.7,32.4-32.4c17.3,0.3,31.3,14.5,31.3,31.9v6.4H58.8V47.7z M163.6,187.1
	c-2.1,2.4-5,3.7-8.2,3.7H25.9c-3.2,0-6.1-1.3-8.2-3.7s-3.1-5.4-2.7-8.6l12.7-106c0.3-2.3,2.2-4,4.5-4h11.4v18.8
	c0,4.1,3.4,7.5,7.5,7.5s7.5-3.4,7.5-7.5V68.5h63.8v18.8c0,4.1,3.4,7.5,7.5,7.5c4.1,0,7.5-3.4,7.5-7.5V68.5H149c2.3,0,4.3,1.7,4.5,4
	l12.7,106l0,0C166.6,181.6,165.7,184.7,163.6,187.1z"/>
<path class="st0" d="M116.5,142L116.5,142c-2.6,0-5,1.4-6.4,3.6c-3.2,4.9-10.8,8.4-19.4,8.4s-16.2-3.5-19.4-8.4
	c-1.4-2.2-3.8-3.6-6.4-3.6l0,0c-5.8,0-9.5,6.4-6.4,11.4c1.9,3,4.4,5.7,7.6,8c6.7,4.9,15.4,7.6,24.6,7.6s17.9-2.7,24.6-7.6
	c3.1-2.3,5.7-5,7.6-8C125.9,148.4,122.3,142,116.5,142z"/>
<rect x="64.4" y="104.1" transform="matrix(0.2747 -0.9615 0.9615 0.2747 -59.4937 151.1194)" class="st0" width="12" height="21.8"/>
<path class="st0" d="M112.4,124.7c5,0,9-4,9-9l0,0c0-5-4-9-9-9s-9,4-9,9l0,0C103.4,120.7,107.4,124.7,112.4,124.7z"/>
<path class="st0" d="M246.4,107.7c-15-3.5-18.9-6.1-18.9-12.5c0-6.6,4.9-9.9,13-9.9c11.9,0,15.1,6.2,16.1,11.9h20.2
	c-1.3-13.6-11.1-26.8-35.7-26.8c-18.4,0-29.9,7.7-33.1,19.8c-0.6,2.3-0.9,4.8-0.9,7.4c0,12.5,6.2,21.7,31.5,27.6
	c15.9,3.7,20.3,7,20.3,14.5c0,6.8-4.6,11-15.3,11s-17.4-4.1-19.5-13.4h-20.2c2.2,16.9,14.6,28.5,38.1,28.5
	c24.3,0,37.1-11.4,37.3-28.1c0-0.1,0-0.3,0-0.4C279.3,124.1,273.3,114.1,246.4,107.7z"/>
<path class="st0" d="M349.9,101.9c-1.9-2.7-4.3-4.8-7.2-6.2l0,0c-3.2-1.6-6.9-2.4-11-2.4c-12.2,0-17.8,6.1-20.2,10.5
	c-0.1-2.2-0.4-7.1-0.7-8.9h-18.7c0.1,5.1,0.1,11.6,0.1,17.5V144v20.5h19.3v-12.2v-26.5c0-12.3,4.7-16.8,12.9-16.8
	c8.5,0,11.1,5.7,11.1,13.5v38.6v3.5h11.4h7.9v-44.3C354.8,112.5,353.1,106.3,349.9,101.9L349.9,101.9z"/>
<path class="st0" d="M428.8,129.3v-12.2c0-16.6-10.1-23.8-28.8-24c-21-0.1-28.7,9.8-29.8,22c0,0.1,0,0.2,0,0.2h0.5h17.8
	c0.9-5,2.7-8.5,10.8-8.5c8.9,0,10.7,4.9,10.7,9.8v4.2h-9.9c-4.9,0-9.4,0.4-13.4,1.3c-12.4,2.7-19.8,9.8-19.8,21.9
	c0,10.8,7.1,21.8,23.9,21.8c12.3,0,17-4.5,19.6-8.4c0,1.8,0.4,5.4,1,6.8h18.4c-0.4-1.7-0.9-11.3-0.9-18v-16.9H428.8z M410,134.5
	c0,9.2-1.5,17.7-13.8,17.7c-6.9,0-10-4.2-10-9.3c0-6.7,4.3-10.2,15.9-10.2h7.9V134.5z"/>
<path class="st0" d="M633.7,94.8c-2.7,9.4-4.9,17.4-6.7,24.1c-3.9,14.2-6.1,23-7.1,27.7h-0.1c-0.7-4-3.4-14-7.1-26.8
	c-2.2-7.6-4.7-16.1-7.4-25.1h-20.7l9.6,27.2l15.7,44.5c-2.6,7.7-6.2,10.1-13.2,10.1c-1.6,0-3.7-0.1-5-0.3v15.5
	c3.3,0.4,7.3,0.5,9,0.5c16.7,0,22.3-6,28.9-26l15.6-47.7l7.8-23.9h-19.3V94.8z"/>
<path class="st0" d="M490.6,102.1c-1.1-3.2-6-8.9-18-8.9c-17.1,0-30,14.4-30.4,35.7c0,0.3,0,0.6,0,1c0,18.7,10.4,33.7,28.8,33.7h0.1
	c10.1,0,15.9-3.8,19.5-9.8v3.3c0,13.6-2.4,21.3-14.9,21.3c-7.4,0-10.9-3.2-12.3-8h-3.8h-15.8c0.2,2.5,0.8,5.5,2.4,8.6
	c3.4,6.7,11.2,13.4,28.7,13.4c26.4,0,34.6-14.1,34.6-36.5v-11v-30.2c0-2.6,0-5.2,0-7.8c0-4.2,0.1-8.4,0.1-12.2h-18.3
	C491.3,95.9,490.8,100.2,490.6,102.1z M491.3,128.4c0,11.7-3.1,19.6-14.7,19.6c-8.5,0-14.5-7.1-14.5-19c0-1,0-1.9,0.1-2.8
	c0.8-12,7-17.5,14.8-17.5c7.9,0,11.5,3.3,13.1,8.8C491,120.5,491.3,124.2,491.3,128.4z"/>
<polygon class="st0" points="562,128 577.6,109.8 577.6,94.8 523.1,94.8 523.1,110 555.9,110 533.3,136.2 521.4,149.9 521.4,164.4 
	577.7,164.4 580,149.2 543.8,149.2 "/>
</svg>
