<?xml version="1.0" encoding="utf-8"?>
<!-- Generator: Adobe Illustrator 26.2.1, SVG Export Plug-In . SVG Version: 6.00 Build 0)  -->
<svg version="1.1" id="Layer_2" xmlns="http://www.w3.org/2000/svg" xmlns:xlink="http://www.w3.org/1999/xlink" x="0px" y="0px"
	 viewBox="0 0 653 206" style="enable-background:new 0 0 653 206;" xml:space="preserve">
<style type="text/css">
	.st0{fill:#FF3D68;}
	.st1{fill:#FFC53A;}
	.st2{fill:#49B4AF;}
	.st3{fill:#0B91ED;}
	.st4{fill:#512D7A;}
</style>
<g>
	<path class="st0" d="M17.9,117.2c0,0,24.8,15,32.2,35.2s31.5,36,59.2,40.5v7.5l-79.5,0.8l-17.2-8.8l-6-9.9L17.9,117.2z"/>
	<polygon class="st1" points="172.3,159.3 160.4,65.5 149,61 26.9,61 20.4,71.6 10.9,162.2 66.1,201.2 158.4,198.8 171.8,191.3 
		174.6,165.2 	"/>
	<path class="st2" d="M167.1,133c0,0-37.5,15.8-63,63.8l39.8,1.5l19.5-2.2l8.4-4.7l4.4-11l-3.8-15.7L167.1,133z"/>
	<path class="st3" d="M164.2,94.9c0,0-35.3,15.6-65.3,2.1S60.6,58.8,60.6,58.8l91.5-0.8l8.2,7.5L164.2,94.9z"/>
	<path class="st4" d="M155.4,205.8H26c-7.4,0-14.5-3.2-19.4-8.7c-4.9-5.5-7.2-12.9-6.3-20.3L13,70.7c1.2-9.8,9.5-17.2,19.4-17.2H149
		c9.9,0,18.2,7.4,19.4,17.2l12.7,106c0.9,7.4-1.4,14.8-6.3,20.3C169.9,202.6,162.8,205.8,155.4,205.8z M32.4,68.5
		c-2.3,0-4.3,1.7-4.5,4l-12.7,106c-0.4,3.1,0.6,6.2,2.7,8.6c2.1,2.4,5,3.7,8.2,3.7h129.4c3.2,0,6.1-1.3,8.2-3.7
		c2.1-2.4,3.1-5.4,2.7-8.6v0l-12.7-106c-0.3-2.3-2.2-4-4.5-4H32.4z"/>
	<path class="st4" d="M90,0.3C64.2,0.7,43.8,22.1,43.8,47.8v39.4c0,4.1,3.4,7.5,7.5,7.5h0c4.1,0,7.5-3.4,7.5-7.5V47.7
		c0-17.8,14.6-32.7,32.4-32.4c17.3,0.3,31.3,14.5,31.3,31.9v40.1c0,4.1,3.4,7.5,7.5,7.5h0c4.1,0,7.5-3.4,7.5-7.5V47.1
		C137.6,21,116.1-0.1,90,0.3z"/>
	<path class="st4" d="M116.5,142c-2.6,0-4.9,1.4-6.4,3.6c-3.2,4.9-10.8,8.4-19.4,8.4s-16.2-3.5-19.4-8.4c-1.4-2.2-3.8-3.6-6.4-3.6h0
		c-5.8,0-9.5,6.4-6.4,11.4c1.9,3,4.4,5.7,7.6,8c6.7,4.9,15.4,7.6,24.6,7.6s17.9-2.7,24.6-7.6c3.1-2.3,5.7-5,7.6-8
		C126,148.4,122.3,142,116.5,142L116.5,142z"/>
	
		<rect x="64.5" y="104.1" transform="matrix(0.2747 -0.9615 0.9615 0.2747 -59.4782 151.1479)" class="st4" width="12" height="21.8"/>
	<path class="st4" d="M112.5,124.8L112.5,124.8c-5,0-9-4-9-9v0c0-5,4-9,9-9h0c5,0,9,4,9,9v0C121.5,120.7,117.4,124.8,112.5,124.8z"
		/>
	<g>
		<path class="st4" d="M246.4,107.7c-15-3.5-18.9-6.1-18.9-12.5c0-6.6,4.9-9.9,13-9.9c11.9,0,15.1,6.2,16.1,11.9h20.2
			c-1.3-13.6-11.1-26.8-35.7-26.8c-18.4,0-29.9,7.7-33.1,19.8c-0.6,2.3-0.9,4.8-0.9,7.4c0,12.5,6.2,21.7,31.5,27.6
			c15.9,3.7,20.3,7,20.3,14.5c0,6.8-4.6,11-15.3,11c-10.7,0-17.4-4.1-19.5-13.4h-20.2c2.2,16.9,14.6,28.5,38.1,28.5
			c24.3,0,37.1-11.4,37.3-28.1c0-0.1,0-0.3,0-0.4C279.3,124.1,273.4,114.1,246.4,107.7z"/>
		<path class="st4" d="M350,101.9L350,101.9c-1.9-2.7-4.3-4.8-7.2-6.2c0,0,0,0,0,0c-3.2-1.6-6.9-2.4-11-2.4
			c-12.2,0-17.8,6.1-20.2,10.5c-0.1-2.2-0.4-7.1-0.7-8.9h-18.7c0.1,5.1,0.1,11.6,0.1,17.5v52h19.3v-38.8c0-12.3,4.7-16.8,12.9-16.8
			c8.5,0,11.1,5.7,11.1,13.5v42.1h19.3v-44.3C354.9,112.5,353.1,106.4,350,101.9z"/>
		<path class="st4" d="M428.8,146.4v-29.2c0-16.6-10.1-23.8-28.8-24c-21-0.1-28.7,9.8-29.8,22c0,0.1,0,0.2,0,0.2h18.3
			c0.9-5,2.7-8.5,10.8-8.5c8.9,0,10.7,4.9,10.7,9.8v4.2h-9.9c-4.9,0-9.4,0.4-13.4,1.3c-12.4,2.7-19.8,9.8-19.8,21.9
			c0,10.8,7.1,21.8,23.9,21.8c12.3,0,17-4.5,19.6-8.4c0,1.8,0.4,5.4,1,6.8h18.4C429.4,162.7,428.8,153,428.8,146.4z M410.1,134.5
			c0,9.2-1.5,17.7-13.8,17.7c-6.9,0-10-4.2-10-9.3c0-6.7,4.3-10.2,15.9-10.2h7.8V134.5z"/>
		<path class="st4" d="M491.4,94.8c-0.1,1.1-0.6,5.4-0.8,7.3c-1.1-3.2-6-8.9-18-8.9c-17.1,0-30,14.4-30.4,35.7c0,0.3,0,0.6,0,1
			c0,18.7,10.4,33.7,28.8,33.7h0.1c10.1,0,15.9-3.8,19.5-9.8v3.3c0,13.6-2.4,21.3-14.9,21.3c-7.4,0-10.9-3.2-12.3-8h-19.6
			c0.2,2.5,0.8,5.5,2.4,8.6c3.4,6.7,11.2,13.4,28.7,13.4c26.3,0,34.6-14.1,34.6-36.5v-41.1c0-2.6,0-5.2,0-7.8
			c0-4.2,0.1-8.4,0.1-12.2H491.4z M491.3,128.4c0,11.7-3.1,19.6-14.7,19.6c-8.5,0-14.5-7.1-14.5-19c0-1,0-1.9,0.1-2.8
			c0.8-12,7-17.5,14.8-17.5c7.9,0,11.5,3.3,13.1,8.8C491,120.5,491.3,124.2,491.3,128.4z"/>
		<path class="st4" d="M543.9,149.2l18.1-21.1l15.7-18.3v-15h-54.5V110h32.8l-22.6,26.2l-11.9,13.8v14.5h56.3l2.3-15.2H543.9z"/>
		<path class="st4" d="M633.8,94.8c-2.7,9.4-4.9,17.4-6.7,24.1c-3.9,14.2-6.1,23-7.1,27.7h-0.1c-0.7-4-3.4-14-7.1-26.8
			c-2.2-7.6-4.7-16.1-7.4-25.1h-20.7l9.6,27.2l15.7,44.5c-2.6,7.7-6.2,10.1-13.2,10.1c-1.6,0-3.7-0.1-5-0.3v15.5
			c3.3,0.4,7.3,0.5,9,0.5c16.7,0,22.3-6,28.9-26l15.6-47.7l7.8-23.9H633.8z"/>
		<path class="st1" d="M246.4,107.7c-15-3.5-18.9-6.1-18.9-12.5c0-6.6,4.9-9.9,13-9.9c11.9,0,15.1,6.2,16.1,11.9h20.2
			c-1.3-13.6-11.1-26.8-35.7-26.8c-18.4,0-29.9,7.7-33.1,19.8c-0.6,2.3-0.9,4.8-0.9,7.4c0,12.5,6.2,21.7,31.5,27.6
			c15.9,3.7,20.3,7,20.3,14.5c0,6.8-4.6,11-15.3,11c-10.7,0-17.4-4.1-19.5-13.4h-20.2c2.2,16.9,14.6,28.5,38.1,28.5
			c24.3,0,37.1-11.4,37.3-28.1c0-0.1,0-0.3,0-0.4C279.3,124.1,273.4,114.1,246.4,107.7z"/>
		<path class="st1" d="M350,101.9L350,101.9c-1.9-2.7-4.3-4.8-7.2-6.2c0,0,0,0,0,0c-3.2-1.6-6.9-2.4-11-2.4
			c-12.2,0-17.8,6.1-20.2,10.5c-0.1-2.2-0.4-7.1-0.7-8.9h-18.7c0.1,5.1,0.1,11.6,0.1,17.5v52h19.3v-38.8c0-12.3,4.7-16.8,12.9-16.8
			c8.5,0,11.1,5.7,11.1,13.5v42.1h19.3v-44.3C354.9,112.5,353.1,106.4,350,101.9z"/>
		<path class="st1" d="M428.8,146.4v-29.2c0-16.6-10.1-23.8-28.8-24c-21-0.1-28.7,9.8-29.8,22c0,0.1,0,0.2,0,0.2h18.3
			c0.9-5,2.7-8.5,10.8-8.5c8.9,0,10.7,4.9,10.7,9.8v4.2h-9.9c-4.9,0-9.4,0.4-13.4,1.3c-12.4,2.7-19.8,9.8-19.8,21.9
			c0,10.8,7.1,21.8,23.9,21.8c12.3,0,17-4.5,19.6-8.4c0,1.8,0.4,5.4,1,6.8h18.4C429.4,162.7,428.8,153,428.8,146.4z M410.1,134.5
			c0,9.2-1.5,17.7-13.8,17.7c-6.9,0-10-4.2-10-9.3c0-6.7,4.3-10.2,15.9-10.2h7.8V134.5z"/>
		<path class="st1" d="M491.4,94.8c-0.1,1.1-0.6,5.4-0.8,7.3c-1.1-3.2-6-8.9-18-8.9c-17.1,0-30,14.4-30.4,35.7c0,0.3,0,0.6,0,1
			c0,18.7,10.4,33.7,28.8,33.7h0.1c10.1,0,15.9-3.8,19.5-9.8v3.3c0,13.6-2.4,21.3-14.9,21.3c-7.4,0-10.9-3.2-12.3-8h-19.6
			c0.2,2.5,0.8,5.5,2.4,8.6c3.4,6.7,11.2,13.4,28.7,13.4c26.3,0,34.6-14.1,34.6-36.5v-41.1c0-2.6,0-5.2,0-7.8
			c0-4.2,0.1-8.4,0.1-12.2H491.4z M491.3,128.4c0,11.7-3.1,19.6-14.7,19.6c-8.5,0-14.5-7.1-14.5-19c0-1,0-1.9,0.1-2.8
			c0.8-12,7-17.5,14.8-17.5c7.9,0,11.5,3.3,13.1,8.8C491,120.5,491.3,124.2,491.3,128.4z"/>
		<path class="st1" d="M543.9,149.2l18.1-21.1l15.7-18.3v-15h-54.5V110h32.8l-22.6,26.2l-11.9,13.8v14.5h56.3l2.3-15.2H543.9z"/>
		<path class="st1" d="M633.8,94.8c-2.7,9.4-4.9,17.4-6.7,24.1c-3.9,14.2-6.1,23-7.1,27.7h-0.1c-0.7-4-3.4-14-7.1-26.8
			c-2.2-7.6-4.7-16.1-7.4-25.1h-20.7l9.6,27.2l15.7,44.5c-2.6,7.7-6.2,10.1-13.2,10.1c-1.6,0-3.7-0.1-5-0.3v15.5
			c3.3,0.4,7.3,0.5,9,0.5c16.7,0,22.3-6,28.9-26l15.6-47.7l7.8-23.9H633.8z"/>
		<path class="st0" d="M208,90.1c13.8,12.1,37.5,30.4,71.3,47.5c-0.2,16.7-13,28.1-37.3,28.1c-23.5,0-35.9-11.6-38.1-28.5h20.2
			c2.1,9.3,8.8,13.4,19.5,13.4c10.7,0,15.3-4.2,15.3-11c0-7.5-4.5-10.8-20.3-14.5c-25.2-5.9-31.5-15.1-31.5-27.6
			C207.1,94.9,207.4,92.5,208,90.1z"/>
		<path class="st0" d="M292.4,143.9c6.1,2.8,12.6,5.6,19.3,8.3v12.2h-19.3V143.9z"/>
		<path class="st0" d="M346.9,164.4h-11.4v-3.5C339.3,162.1,343.1,163.3,346.9,164.4z"/>
		<path class="st3" d="M428.8,117.2v12.2c-15.9-0.1-29.9-2.8-42.1-7c4-0.9,8.4-1.3,13.4-1.3h9.9v-4.2c0-5-1.8-9.8-10.7-9.8
			c-8.1,0-9.9,3.5-10.8,8.5h-17.8c-0.2-0.1-0.3-0.2-0.5-0.2c1.1-12.2,8.8-22.1,29.8-22C418.7,93.3,428.8,100.6,428.8,117.2z"/>
		<path class="st3" d="M509.7,94.8c-0.1,3.8-0.1,8-0.1,12.2c-5.8,3.8-12.2,7.3-19.4,10.4c-1.6-5.5-5.3-8.8-13.1-8.8
			c-7.8,0-14,5.6-14.8,17.5c-6.2,1.3-12.8,2.2-19.9,2.7c0.4-21.2,13.3-35.7,30.4-35.7c11.9,0,16.9,5.6,18,8.9
			c0.1-1.9,0.6-6.1,0.8-7.3H509.7z"/>
		<path class="st2" d="M543.9,149.2h36.2l-2.3,15.2h-56.3v-14.5l11.9-13.8c9.9-3.2,19.5-5.9,28.7-8.1L543.9,149.2z"/>
		<path class="st2" d="M509.6,145v11c0,22.3-8.2,36.5-34.6,36.5c-17.4,0-25.3-6.7-28.7-13.4c4.5-3,8.9-5.9,13.4-8.6h3.8
			c1.4,4.8,4.9,8,12.3,8c12.5,0,14.9-7.6,14.9-21.3v-3.3c-3.6,6-9.3,9.7-19.5,9.8C484.2,156.3,497,150.1,509.6,145z"/>
		<path class="st2" d="M645.1,118.7l-15.6,47.7c-6.6,20-12.2,26-28.9,26c-1.7,0-5.7-0.1-9-0.5v-15.5c1.3,0.1,3.4,0.3,5,0.3
			c7.1,0,10.6-2.5,13.2-10.1L594.1,122c6.5-0.9,12.7-1.6,18.5-2.1c3.7,12.8,6.4,22.8,7.1,26.8h0.1c1-4.8,3.2-13.5,7.1-27.7
			C633.8,118.7,639.9,118.6,645.1,118.7z"/>
	</g>
</g>
</svg>
