<?xml version="1.0" encoding="utf-8"?>
<!-- Generator: Adobe Illustrator 26.2.1, SVG Export Plug-In . SVG Version: 6.00 Build 0)  -->
<svg version="1.1" id="Layer_1" xmlns="http://www.w3.org/2000/svg" xmlns:xlink="http://www.w3.org/1999/xlink" x="0px" y="0px"
	 viewBox="0 0 182 206" style="enable-background:new 0 0 182 206;" xml:space="preserve">
<style type="text/css">
	.st0{fill:#FF3D68;}
	.st1{fill:#FFC53A;}
	.st2{fill:#49B4AF;}
	.st3{fill:#0B91ED;}
	.st4{fill:#512D7A;}
</style>
<path class="st0" d="M18,117.2c0,0,24.8,15,32.2,35.2s31.5,36,59.3,40.5v7.5L30,201.2l-17.2-8.8l-6-9.9L18,117.2z"/>
<polygon class="st1" points="172.4,159.3 160.5,65.4 149.1,60.9 27,60.9 20.5,71.5 11,162.2 66.2,201.1 158.5,198.8 171.9,191.2 
	174.7,165.2 "/>
<path class="st2" d="M167.2,132.9c0,0-37.5,15.8-63,63.8l39.8,1.5l19.5-2.2l8.4-4.7l4.4-11l-3.8-15.7L167.2,132.9z"/>
<path class="st3" d="M164.3,94.8c0,0-35.3,15.6-65.3,2.1S60.7,58.7,60.7,58.7l91.5-0.8l8.2,7.5L164.3,94.8z"/>
<g>
	<path class="st4" d="M155.7,205.6c-0.1,0-0.2,0-0.2,0H26.1c-7.4,0-14.5-3.2-19.4-8.7c-4.9-5.5-7.2-12.9-6.4-20.3l12.7-106
		c1.3-9.9,9.7-17.2,19.4-17.2h116.6c10,0,18.3,7.4,19.5,17.2l12.7,106c0.9,7.4-1.5,14.9-6.5,20.4C169.9,202.5,163,205.6,155.7,205.6
		z M32.5,68.4c-2.3,0-4.3,1.8-4.6,4.1L15.2,178.4c-0.4,3.2,0.6,6.2,2.7,8.6c2.1,2.4,5,3.6,8.2,3.6h129.4c3.2,0,6.1-1.2,8.1-3.5
		c2.1-2.3,3.1-5.5,2.7-8.7l-12.7-106c-0.3-2.3-2.2-4-4.6-4H32.5z"/>
	<path class="st4" d="M90.1,0.2C64.4,0.6,43.9,22,43.9,47.8v39.4c0,4.1,3.4,7.5,7.5,7.5l0,0c4.1,0,7.5-3.4,7.5-7.5V47.6
		c0-17.8,14.6-32.7,32.4-32.4c17.3,0.3,31.3,14.5,31.3,31.9v40.1c0,4.1,3.4,7.5,7.5,7.5l0,0c4.1,0,7.5-3.4,7.5-7.5V47.1
		C137.7,21,116.3-0.2,90.1,0.2z"/>
	<path class="st4" d="M116.6,141.9c-2.6,0-4.9,1.4-6.4,3.6c-3.2,4.9-10.8,8.4-19.4,8.4s-16.2-3.5-19.4-8.4c-1.4-2.2-3.8-3.6-6.4-3.6
		l0,0c-5.8,0-9.5,6.4-6.4,11.4c1.9,3,4.4,5.7,7.6,8c6.7,4.9,15.4,7.6,24.6,7.6s17.9-2.7,24.6-7.6c3.1-2.3,5.7-5,7.6-8
		C126.1,148.4,122.4,141.9,116.6,141.9L116.6,141.9z"/>
	
		<rect x="64.6" y="104" transform="matrix(0.2747 -0.9615 0.9615 0.2747 -59.2747 151.2185)" class="st4" width="12" height="21.8"/>
	<path class="st4" d="M112.6,124.7L112.6,124.7c-5,0-9-4-9-9l0,0c0-5,4-9,9-9l0,0c5,0,9,4,9,9l0,0
		C121.6,120.6,117.5,124.7,112.6,124.7z"/>
</g>
</svg>
