<?xml version="1.0" encoding="utf-8"?>
<!-- Generator: Adobe Illustrator 26.2.1, SVG Export Plug-In . SVG Version: 6.00 Build 0)  -->
<svg version="1.1" id="Layer_1" xmlns="http://www.w3.org/2000/svg" xmlns:xlink="http://www.w3.org/1999/xlink" x="0px" y="0px"
	 viewBox="0 0 671 206" style="enable-background:new 0 0 671 206;" xml:space="preserve">
<style type="text/css">
	.st0{fill:#FF3D68;}
	.st1{fill:#FFC53A;}
	.st2{fill:#49B4AF;}
	.st3{fill:#0B91ED;}
	.st4{fill:#512D7A;}
</style>
<path class="st0" d="M18,117.2c0,0,24.8,15,32.2,35.2s31.5,36,59.3,40.5v7.5L30,201.2l-17.2-8.8l-6-9.9L18,117.2z"/>
<polygon class="st1" points="172.4,159.3 160.5,65.4 149.1,60.9 27,60.9 20.5,71.5 11,162.2 66.2,201.1 158.5,198.8 171.9,191.2 
	174.7,165.2 "/>
<path class="st2" d="M167.2,132.9c0,0-37.5,15.8-63,63.8l39.8,1.5l19.5-2.2l8.4-4.7l4.4-11l-3.8-15.7L167.2,132.9z"/>
<path class="st3" d="M164.3,94.8c0,0-35.3,15.6-65.3,2.1S60.7,58.7,60.7,58.7l91.5-0.8l8.2,7.5L164.3,94.8z"/>
<g>
	<path class="st4" d="M155.7,205.6c-0.1,0-0.2,0-0.2,0H26.1c-7.4,0-14.5-3.2-19.4-8.7s-7.2-12.9-6.4-20.3L13,70.6
		c1.3-9.9,9.7-17.2,19.4-17.2H149c10,0,18.3,7.4,19.5,17.2l12.7,106c0.9,7.4-1.5,14.9-6.4,20.4C169.9,202.5,163,205.6,155.7,205.6z
		 M32.5,68.4c-2.3,0-4.3,1.8-4.6,4.1L15.2,178.4c-0.4,3.2,0.6,6.2,2.7,8.6c2.1,2.4,5,3.6,8.2,3.6h129.4c3.2,0,6.1-1.2,8.1-3.5
		c2.1-2.3,3.1-5.5,2.7-8.7l-12.7-106c-0.3-2.3-2.2-4-4.6-4C149,68.4,32.5,68.4,32.5,68.4z"/>
	<path class="st4" d="M90.1,0.2C64.4,0.6,43.9,22,43.9,47.8v39.4c0,4.1,3.4,7.5,7.5,7.5l0,0c4.1,0,7.5-3.4,7.5-7.5V47.6
		c0-17.8,14.6-32.7,32.4-32.4c17.3,0.3,31.3,14.5,31.3,31.9v40.1c0,4.1,3.4,7.5,7.5,7.5l0,0c4.1,0,7.5-3.4,7.5-7.5V47.1
		C137.7,21,116.3-0.2,90.1,0.2z"/>
	<path class="st4" d="M116.6,141.9c-2.6,0-4.9,1.4-6.4,3.6c-3.2,4.9-10.8,8.4-19.4,8.4s-16.2-3.5-19.4-8.4c-1.4-2.2-3.8-3.6-6.4-3.6
		l0,0c-5.8,0-9.5,6.4-6.4,11.4c1.9,3,4.4,5.7,7.6,8c6.7,4.9,15.4,7.6,24.6,7.6s17.9-2.7,24.6-7.6c3.1-2.3,5.7-5,7.6-8
		C126.1,148.4,122.4,141.9,116.6,141.9L116.6,141.9z"/>
	
		<rect x="64.6" y="104" transform="matrix(0.2747 -0.9615 0.9615 0.2747 -59.2769 151.2153)" class="st4" width="12" height="21.8"/>
	<path class="st4" d="M112.6,124.7L112.6,124.7c-5,0-9-4-9-9l0,0c0-5,4-9,9-9l0,0c5,0,9,4,9,9l0,0
		C121.6,120.6,117.5,124.7,112.6,124.7z"/>
</g>
<g>
	<rect x="471.7" y="118.2" class="st4" width="14" height="22"/>
	<rect x="517.7" y="112.2" class="st4" width="75" height="31"/>
	<rect x="552.7" y="141.2" class="st4" width="75" height="31"/>
	<g>
		<path class="st4" d="M246.5,107.7c-15-3.5-18.9-6.1-18.9-12.5c0-6.6,4.9-9.9,13-9.9c11.9,0,15.1,6.2,16.1,11.9h20.2
			c-1.3-13.6-11.1-26.8-35.7-26.8c-18.4,0-29.9,7.7-33.1,19.8c-0.6,2.3-0.9,4.8-0.9,7.4c0,12.5,6.2,21.7,31.5,27.6
			c15.9,3.7,20.3,7,20.3,14.5c0,6.8-4.6,11-15.3,11s-17.4-4.1-19.5-13.4H204c2.2,16.9,14.6,28.5,38.1,28.5
			c24.3,0,37.1-11.4,37.3-28.1c0-0.1,0-0.3,0-0.4C279.4,124,273.5,114,246.5,107.7z"/>
		<path class="st4" d="M350.1,101.8L350.1,101.8c-1.9-2.7-4.3-4.8-7.2-6.2l0,0c-3.2-1.6-6.9-2.4-11-2.4c-12.2,0-17.8,6.1-20.2,10.5
			c-0.1-2.2-0.4-7.1-0.7-8.9h-18.7c0.1,5.1,0.1,11.6,0.1,17.5v52h19.3v-38.8c0-12.3,4.7-16.8,12.9-16.8c8.5,0,11.1,5.7,11.1,13.5
			v42.1H355V120C355,112.4,353.2,106.3,350.1,101.8z"/>
		<path class="st4" d="M428.9,146.3v-29.2c0-16.6-10.1-23.8-28.8-24c-21-0.1-28.7,9.8-29.8,22c0,0.1,0,0.2,0,0.2h18.3
			c0.9-5,2.7-8.5,10.8-8.5c8.9,0,10.7,4.9,10.7,9.8v4.2h-9.9c-4.9,0-9.4,0.4-13.4,1.3c-12.4,2.7-19.8,9.8-19.8,21.9
			c0,10.8,7.1,21.8,23.9,21.8c12.3,0,17-4.5,19.6-8.4c0,1.8,0.4,5.4,1,6.8h18.4C429.5,162.6,428.9,153,428.9,146.3z M410.2,134.5
			c0,9.2-1.5,17.7-13.8,17.7c-6.9,0-10-4.2-10-9.3c0-6.7,4.3-10.2,15.9-10.2h7.8v1.8H410.2z"/>
		<path class="st4" d="M491.6,94.7c-0.1,1.1-0.6,5.4-0.8,7.3c-1.1-3.2-6-8.9-18-8.9c-17.1,0-30,14.4-30.4,35.7c0,0.3,0,0.6,0,1
			c0,18.7,10.4,33.7,28.8,33.7h0.1c10.1,0,15.9-3.8,19.5-9.8v3.3c0,13.6-2.4,21.3-14.9,21.3c-7.4,0-10.9-3.2-12.3-8H444
			c0.2,2.5,0.8,5.5,2.4,8.6c3.4,6.7,11.2,13.4,28.7,13.4c26.3,0,34.6-14.1,34.6-36.5v-41.1c0-2.6,0-5.2,0-7.8
			c0-4.2,0.1-8.4,0.1-12.2C509.8,94.7,491.6,94.7,491.6,94.7z M491.4,128.3c0,11.7-3.1,19.6-14.7,19.6c-8.5,0-14.5-7.1-14.5-19
			c0-1,0-1.9,0.1-2.8c0.8-12,7-17.5,14.8-17.5c7.9,0,11.5,3.3,13.1,8.8C491.1,120.4,491.4,124.1,491.4,128.3z"/>
		<path class="st4" d="M544,149.1l18.1-21.1l15.7-18.3v-15h-54.5v15.2H556l-22.6,26.2l-11.9,13.8v14.5h56.3l2.3-15.2L544,149.1
			L544,149.1z"/>
		<path class="st4" d="M633.9,94.7c-2.7,9.4-4.9,17.4-6.7,24.1c-3.9,14.2-6.1,23-7.1,27.7H620c-0.7-4-3.4-14-7.1-26.8
			c-2.2-7.6-4.7-16.1-7.4-25.1h-20.7l9.6,27.2l15.7,44.5c-2.6,7.7-6.2,10.1-13.2,10.1c-1.6,0-3.7-0.1-5-0.3v15.5
			c3.3,0.4,7.3,0.5,9,0.5c16.7,0,22.3-6,28.9-26l15.6-47.7l7.8-23.9h-19.3L633.9,94.7L633.9,94.7z"/>
	</g>
	<g>
		<path class="st4" d="M242.1,178.8c-28.7,0-47.7-14.9-51-39.8l-1.9-14.7h16.5c-6.8-6-11.5-14.5-11.5-26.7c0-3.7,0.4-7.3,1.3-10.7
			c4.9-18.5,22-29.5,45.7-29.5c33.1,0,46.9,19.9,48.6,38.6l1.4,14.2h-9.3c6.4,6.3,10.5,14.9,10.5,27.1l0,0.6
			c-0.1,12.3-5.3,23.1-14.6,30.4C268.9,175.2,256.9,178.8,242.1,178.8z"/>
		<path class="st4" d="M368,177.3h-88.6v-65c0-5.8,0-12.3-0.1-17.2L279,81.8h41.1c3.6-1.1,7.6-1.6,11.7-1.6c6.1,0,11.7,1.3,16.7,3.7
			c4.8,2.3,8.9,5.8,12.1,10.4l0.1,0.1c4.8,6.9,7.2,15.5,7.2,25.6V177.3z"/>
		<path class="st4" d="M390.9,178.8c-25.4,0-36.9-18-36.9-34.8c0-5.8,1.2-11.1,3.4-15.7h-0.1v-13.8l0.1-0.6
			c1.9-21.2,17.8-33.8,42.5-33.8c0.1,0,0.2,0,0.3,0c37.7,0.4,41.7,26,41.7,37v29.2c0,5.7,0.5,13.1,0.7,15.2l3.9,15.7h-42.8
			C400,178.3,395.7,178.8,390.9,178.8z M442.5,161l0,0.1C442.5,161.1,442.5,161.1,442.5,161z"/>
		<path class="st4" d="M475.1,205.3c-24.7,0-35.5-11.2-40.3-20.5c-2.1-4.1-3.4-8.6-3.8-13.4l-1.1-14h6.6c-4.6-7.5-7.1-16.9-7.1-27.5
			l0-1.2c0.5-28.1,18.8-48.5,43.4-48.5c4.4,0,8.4,0.6,11.8,1.6h38.2v13c0,1.9,0,3.9,0,6c0,2-0.1,4.1-0.1,6.2v48.9
			C522.7,196.7,496.8,205.3,475.1,205.3z M476.5,134.9c0,0,0.1,0,0.2,0c0.4,0,0.8,0,1,0c0.3-0.9,0.7-2.8,0.7-6.6
			c0-3.5-0.3-5.6-0.5-6.7c-0.2,0-0.5,0-0.8,0c-0.2,0-0.4,0-0.4,0c-0.3,0.4-1.2,1.9-1.4,5.3l-0.1,0.6c0,0.2,0,0.9,0,1.4
			C475.2,132.7,476.2,134.5,476.5,134.9z"/>
		<polygon class="st4" points="589,177.4 508.5,177.4 508.5,145.1 527.6,122.9 510.3,122.9 510.3,81.7 590.8,81.7 590.8,114.5 
			572.2,136.2 595.2,136.2 		"/>
		<path class="st4" d="M600.9,205.1c-0.6,0-5.8,0-10.6-0.6l-11.4-1.4v-42.2l15,2.3c0.2,0,0.8,0.1,1.4,0.1l-28.9-81.8h48.7l2.8,9.3
			c0.6,2,1.2,4,1.8,6c0.4-1.3,0.8-2.7,1.1-4V81.5h50.2l-29,88.6C634.8,192.3,625.8,205.1,600.9,205.1z"/>
	</g>
	<g>
		<g>
			<path class="st1" d="M246.5,107.7c-15-3.5-18.9-6.1-18.9-12.5c0-6.6,4.9-9.9,13-9.9c11.9,0,15.1,6.2,16.1,11.9h20.2
				c-1.3-13.6-11.1-26.8-35.7-26.8c-18.4,0-29.9,7.7-33.1,19.8c-0.6,2.3-0.9,4.8-0.9,7.4c0,12.5,6.2,21.7,31.5,27.6
				c15.9,3.7,20.3,7,20.3,14.5c0,6.8-4.6,11-15.3,11s-17.4-4.1-19.5-13.4H204c2.2,16.9,14.6,28.5,38.1,28.5
				c24.3,0,37.1-11.4,37.3-28.1c0-0.1,0-0.3,0-0.4C279.4,124,273.5,114,246.5,107.7z"/>
			<path class="st1" d="M350.1,101.8L350.1,101.8c-1.9-2.7-4.3-4.8-7.2-6.2l0,0c-3.2-1.6-6.9-2.4-11-2.4c-12.2,0-17.8,6.1-20.2,10.5
				c-0.1-2.2-0.4-7.1-0.7-8.9h-18.7c0.1,5.1,0.1,11.6,0.1,17.5v52h19.3v-38.8c0-12.3,4.7-16.8,12.9-16.8c8.5,0,11.1,5.7,11.1,13.5
				v42.1H355V120C355,112.4,353.2,106.3,350.1,101.8z"/>
			<path class="st1" d="M428.9,146.3v-29.2c0-16.6-10.1-23.8-28.8-24c-21-0.1-28.7,9.8-29.8,22c0,0.1,0,0.2,0,0.2h18.3
				c0.9-5,2.7-8.5,10.8-8.5c8.9,0,10.7,4.9,10.7,9.8v4.2h-9.9c-4.9,0-9.4,0.4-13.4,1.3c-12.4,2.7-19.8,9.8-19.8,21.9
				c0,10.8,7.1,21.8,23.9,21.8c12.3,0,17-4.5,19.6-8.4c0,1.8,0.4,5.4,1,6.8h18.4C429.5,162.6,428.9,153,428.9,146.3z M410.2,134.5
				c0,9.2-1.5,17.7-13.8,17.7c-6.9,0-10-4.2-10-9.3c0-6.7,4.3-10.2,15.9-10.2h7.8v1.8H410.2z"/>
			<path class="st1" d="M491.6,94.7c-0.1,1.1-0.6,5.4-0.8,7.3c-1.1-3.2-6-8.9-18-8.9c-17.1,0-30,14.4-30.4,35.7c0,0.3,0,0.6,0,1
				c0,18.7,10.4,33.7,28.8,33.7h0.1c10.1,0,15.9-3.8,19.5-9.8v3.3c0,13.6-2.4,21.3-14.9,21.3c-7.4,0-10.9-3.2-12.3-8H444
				c0.2,2.5,0.8,5.5,2.4,8.6c3.4,6.7,11.2,13.4,28.7,13.4c26.3,0,34.6-14.1,34.6-36.5v-41.1c0-2.6,0-5.2,0-7.8
				c0-4.2,0.1-8.4,0.1-12.2C509.8,94.7,491.6,94.7,491.6,94.7z M491.4,128.3c0,11.7-3.1,19.6-14.7,19.6c-8.5,0-14.5-7.1-14.5-19
				c0-1,0-1.9,0.1-2.8c0.8-12,7-17.5,14.8-17.5c7.9,0,11.5,3.3,13.1,8.8C491.1,120.4,491.4,124.1,491.4,128.3z"/>
			<path class="st1" d="M544,149.1l18.1-21.1l15.7-18.3v-15h-54.5v15.2H556l-22.6,26.2l-11.9,13.8v14.5h56.3l2.3-15.2L544,149.1
				L544,149.1z"/>
			<path class="st1" d="M633.9,94.7c-2.7,9.4-4.9,17.4-6.7,24.1c-3.9,14.2-6.1,23-7.1,27.7H620c-0.7-4-3.4-14-7.1-26.8
				c-2.2-7.6-4.7-16.1-7.4-25.1h-20.7l9.6,27.2l15.7,44.5c-2.6,7.7-6.2,10.1-13.2,10.1c-1.6,0-3.7-0.1-5-0.3v15.5
				c3.3,0.4,7.3,0.5,9,0.5c16.7,0,22.3-6,28.9-26l15.6-47.7l7.8-23.9h-19.3L633.9,94.7L633.9,94.7z"/>
		</g>
	</g>
	<path class="st0" d="M208.1,90.1c13.8,12.1,37.5,30.4,71.3,47.5c-0.2,16.7-13,28.1-37.3,28.1c-23.5,0-35.9-11.6-38.1-28.5h20.2
		c2.1,9.3,8.8,13.4,19.5,13.4s15.3-4.2,15.3-11c0-7.5-4.5-10.8-20.3-14.5c-25.2-5.9-31.5-15.1-31.5-27.6
		C207.2,94.8,207.5,92.4,208.1,90.1z"/>
	<path class="st0" d="M292.5,143.8c6.1,2.8,12.6,5.6,19.3,8.3v12.2h-19.3V143.8z"/>
	<path class="st0" d="M347.1,164.3h-11.4v-3.5C339.4,162,343.2,163.2,347.1,164.3z"/>
	<path class="st3" d="M428.9,117.1v12.2c-15.9-0.1-29.9-2.8-42.1-7c4-0.9,8.4-1.3,13.4-1.3h9.9v-4.2c0-5-1.8-9.8-10.7-9.8
		c-8.1,0-9.9,3.5-10.8,8.5h-17.8c-0.2-0.1-0.3-0.2-0.5-0.2c1.1-12.2,8.8-22.1,29.8-22C418.8,93.3,428.9,100.5,428.9,117.1z"/>
	<path class="st3" d="M509.8,94.7c-0.1,3.8-0.1,8-0.1,12.2c-5.8,3.8-12.2,7.3-19.4,10.4c-1.6-5.5-5.3-8.8-13.1-8.8
		c-7.8,0-14,5.6-14.8,17.5c-6.2,1.3-12.8,2.2-19.9,2.7c0.4-21.2,13.3-35.7,30.4-35.7c11.9,0,16.9,5.6,18,8.9
		c0.1-1.9,0.6-6.1,0.8-7.3L509.8,94.7L509.8,94.7z"/>
	<path class="st2" d="M544,149.1h36.2l-2.3,15.2h-56.3v-14.5l11.9-13.8c9.9-3.2,19.5-5.9,28.7-8.1L544,149.1z"/>
	<path class="st2" d="M509.7,144.9v11c0,22.3-8.2,36.5-34.6,36.5c-17.4,0-25.3-6.7-28.7-13.4c4.5-3,8.9-5.9,13.4-8.6h3.8
		c1.4,4.8,4.9,8,12.3,8c12.5,0,14.9-7.6,14.9-21.3v-3.3c-3.6,6-9.3,9.7-19.5,9.8C484.3,156.2,497.1,150.1,509.7,144.9z"/>
	<path class="st2" d="M645.3,118.6l-15.6,47.7c-6.6,20-12.2,26-28.9,26c-1.7,0-5.7-0.1-9-0.5v-15.5c1.3,0.1,3.4,0.3,5,0.3
		c7.1,0,10.6-2.5,13.2-10.1L594.3,122c6.5-0.9,12.7-1.6,18.5-2.1c3.7,12.8,6.4,22.8,7.1,26.8h0.1c1-4.8,3.2-13.5,7.1-27.7
		C633.9,118.6,640,118.5,645.3,118.6z"/>
</g>
</svg>
