<?xml version="1.0" encoding="utf-8"?>
<!-- Generator: Adobe Illustrator 26.2.1, SVG Export Plug-In . SVG Version: 6.00 Build 0)  -->
<svg version="1.1" id="Layer_1" xmlns="http://www.w3.org/2000/svg" xmlns:xlink="http://www.w3.org/1999/xlink" x="0px" y="0px"
	 viewBox="0 0 796 206" style="enable-background:new 0 0 796 206;" xml:space="preserve">
<style type="text/css">
	.st0{fill:#FF3D68;}
	.st1{fill:#FFC53A;}
	.st2{fill:#49B4AF;}
	.st3{fill:#0B91ED;}
	.st4{fill:#512D7A;}
	.st5{fill:#512D7A;stroke:#512D7A;stroke-width:30;stroke-miterlimit:10;}
	.st6{display:none;}
	.st7{display:inline;fill:#512D7A;}
</style>
<path class="st0" d="M18,117.2c0,0,24.8,15,32.2,35.2s31.5,36,59.3,40.5v7.5L30,201.2l-17.2-8.8l-6-9.9L18,117.2z"/>
<polygon class="st1" points="172.4,159.3 160.5,65.4 149.1,60.9 27,60.9 20.5,71.5 11,162.2 66.2,201.1 158.5,198.8 171.9,191.2 
	174.7,165.2 "/>
<path class="st2" d="M167.2,132.9c0,0-37.5,15.8-63,63.8l39.8,1.5l19.5-2.2l8.4-4.7l4.4-11l-3.8-15.7L167.2,132.9z"/>
<path class="st3" d="M164.3,94.8c0,0-35.3,15.6-65.3,2.1S60.7,58.7,60.7,58.7l91.5-0.8l8.2,7.5L164.3,94.8z"/>
<g>
	<path class="st4" d="M155.7,205.6c-0.1,0-0.2,0-0.2,0H26.1c-7.4,0-14.5-3.2-19.4-8.7s-7.2-12.9-6.4-20.3L13,70.6
		c1.3-9.9,9.7-17.2,19.4-17.2H149c10,0,18.3,7.4,19.5,17.2l12.7,106c0.9,7.4-1.5,14.9-6.4,20.4C169.9,202.5,163,205.6,155.7,205.6z
		 M32.5,68.4c-2.3,0-4.3,1.8-4.6,4.1L15.2,178.4c-0.4,3.2,0.6,6.2,2.7,8.6c2.1,2.4,5,3.6,8.2,3.6h129.4c3.2,0,6.1-1.2,8.1-3.5
		c2.1-2.3,3.1-5.5,2.7-8.7l-12.7-106c-0.3-2.3-2.2-4-4.6-4C149,68.4,32.5,68.4,32.5,68.4z"/>
	<path class="st4" d="M90.1,0.2C64.4,0.6,43.9,22,43.9,47.8v39.4c0,4.1,3.4,7.5,7.5,7.5l0,0c4.1,0,7.5-3.4,7.5-7.5V47.6
		c0-17.8,14.6-32.7,32.4-32.4c17.3,0.3,31.3,14.5,31.3,31.9v40.1c0,4.1,3.4,7.5,7.5,7.5l0,0c4.1,0,7.5-3.4,7.5-7.5V47.1
		C137.7,21,116.3-0.2,90.1,0.2z"/>
	<path class="st4" d="M116.6,141.9c-2.6,0-4.9,1.4-6.4,3.6c-3.2,4.9-10.8,8.4-19.4,8.4s-16.2-3.5-19.4-8.4c-1.4-2.2-3.8-3.6-6.4-3.6
		l0,0c-5.8,0-9.5,6.4-6.4,11.4c1.9,3,4.4,5.7,7.6,8c6.7,4.9,15.4,7.6,24.6,7.6s17.9-2.7,24.6-7.6c3.1-2.3,5.7-5,7.6-8
		C126.1,148.4,122.4,141.9,116.6,141.9L116.6,141.9z"/>
	
		<rect x="64.6" y="104" transform="matrix(0.2747 -0.9615 0.9615 0.2747 -59.2754 151.2109)" class="st4" width="12" height="21.8"/>
	<path class="st4" d="M112.6,124.7L112.6,124.7c-5,0-9-4-9-9l0,0c0-5,4-9,9-9l0,0c5,0,9,4,9,9l0,0
		C121.6,120.6,117.5,124.7,112.6,124.7z"/>
</g>
<g>
	<rect x="544.4" y="95.8" class="st4" width="17.6" height="27.7"/>
	<rect x="602.2" y="88.2" class="st4" width="94.3" height="39"/>
	<rect x="646.3" y="124.7" class="st4" width="94.3" height="39"/>
	<g>
		<path class="st5" d="M261.2,82.6c-18.9-4.4-23.8-7.7-23.8-15.7c0-8.3,6.2-12.4,16.3-12.4c15,0,19,7.8,20.2,15h25.4
			c-1.6-17.1-14-33.7-44.9-33.7c-23.1,0-37.6,9.7-41.6,24.9c-0.8,2.9-1.1,6-1.1,9.3c0,15.7,7.8,27.3,39.6,34.7
			c20,4.7,25.5,8.8,25.5,18.2c0,8.6-5.8,13.8-19.2,13.8s-21.9-5.2-24.5-16.8h-25.4c2.8,21.2,18.4,35.8,47.9,35.8
			c30.6,0,46.6-14.3,46.9-35.3c0-0.1,0-0.4,0-0.5C302.6,103.1,295.2,90.5,261.2,82.6z"/>
		<path class="st5" d="M391.5,75.2L391.5,75.2c-2.4-3.4-5.4-6-9.1-7.8l0,0c-4-2-8.7-3-13.8-3c-15.3,0-22.4,7.7-25.4,13.2
			c-0.1-2.8-0.5-8.9-0.9-11.2h-23.5c0.1,6.4,0.1,14.6,0.1,22v65.4h24.3V105c0-15.5,5.9-21.1,16.2-21.1c10.7,0,14,7.2,14,17v52.9
			h24.3V98C397.7,88.5,395.4,80.8,391.5,75.2z"/>
		<path class="st5" d="M490.6,131.1V94.4c0-20.9-12.7-29.9-36.2-30.2c-26.4-0.1-36.1,12.3-37.5,27.7c0,0.1,0,0.3,0,0.3h23
			c1.1-6.3,3.4-10.7,13.6-10.7c11.2,0,13.5,6.2,13.5,12.3v5.3h-12.4c-6.2,0-11.8,0.5-16.8,1.6c-15.6,3.4-24.9,12.3-24.9,27.5
			c0,13.6,8.9,27.4,30.1,27.4c15.5,0,21.4-5.7,24.6-10.6c0,2.3,0.5,6.8,1.3,8.6h23.1C491.3,151.6,490.6,139.5,490.6,131.1z
			 M467.1,116.3c0,11.6-1.9,22.3-17.4,22.3c-8.7,0-12.6-5.3-12.6-11.7c0-8.4,5.4-12.8,20-12.8h9.8v2.3H467.1z"/>
		<path class="st5" d="M569.4,66.2c-0.1,1.4-0.8,6.8-1,9.2c-1.4-4-7.5-11.2-22.6-11.2c-21.5,0-37.7,18.1-38.2,44.9
			c0,0.4,0,0.8,0,1.3c0,23.5,13.1,42.4,36.2,42.4h0.1c12.7,0,20-4.8,24.5-12.3v4.1c0,17.1-3,26.8-18.7,26.8c-9.3,0-13.7-4-15.5-10.1
			h-24.6c0.3,3.1,1,6.9,3,10.8c4.3,8.4,14.1,16.8,36.1,16.8c33.1,0,43.5-17.7,43.5-45.9V91.4c0-3.3,0-6.5,0-9.8
			c0-5.3,0.1-10.6,0.1-15.3C592.3,66.2,569.4,66.2,569.4,66.2z M569.2,108.5c0,14.7-3.9,24.6-18.5,24.6c-10.7,0-18.2-8.9-18.2-23.9
			c0-1.3,0-2.4,0.1-3.5c1-15.1,8.8-22,18.6-22c9.9,0,14.5,4.1,16.5,11.1C568.8,98.5,569.2,103.2,569.2,108.5z"/>
		<path class="st5" d="M635.3,134.6l22.8-26.5l19.7-23V66.2h-68.5v19.1h41.1L622,118.3l-15,17.4v18.2h70.8l2.9-19.1L635.3,134.6
			L635.3,134.6z"/>
		<path class="st5" d="M748.4,66.2c-3.4,11.8-6.2,21.9-8.4,30.3c-4.9,17.9-7.7,28.9-8.9,34.8h-0.1c-0.9-5-4.3-17.6-8.9-33.7
			c-2.8-9.6-5.9-20.2-9.3-31.6h-26l12.1,34.2l19.7,56c-3.3,9.7-7.8,12.7-16.6,12.7c-2,0-4.7-0.1-6.3-0.4v19.5
			c4.1,0.5,9.2,0.6,11.3,0.6c21,0,28-7.5,36.3-32.7l19.6-60l9.8-30.1h-24.3L748.4,66.2L748.4,66.2z"/>
	</g>
	<g class="st6">
		<path class="st7" d="M261.2,82.6c-18.9-4.4-23.8-7.7-23.8-15.7c0-8.3,6.2-12.4,16.3-12.4c15,0,19,7.8,20.2,15h25.4
			c-1.6-17.1-14-33.7-44.9-33.7c-23.1,0-37.6,9.7-41.6,24.9c-0.8,2.9-1.1,6-1.1,9.3c0,15.7,7.8,27.3,39.6,34.7
			c20,4.7,25.5,8.8,25.5,18.2c0,8.6-5.8,13.8-19.2,13.8s-21.9-5.2-24.5-16.8h-25.4c2.8,21.2,18.4,35.8,47.9,35.8
			c30.6,0,46.6-14.3,46.9-35.3c0-0.1,0-0.4,0-0.5C302.6,103.1,295.2,90.5,261.2,82.6z"/>
		<path class="st7" d="M391.5,75.2L391.5,75.2c-2.4-3.4-5.4-6-9.1-7.8l0,0c-4-2-8.7-3-13.8-3c-15.3,0-22.4,7.7-25.4,13.2
			c-0.1-2.8-0.5-8.9-0.9-11.2h-23.5c0.1,6.4,0.1,14.6,0.1,22v65.4h24.3V105c0-15.5,5.9-21.1,16.2-21.1c10.7,0,14,7.2,14,17v52.9
			h24.3V98C397.7,88.5,395.4,80.8,391.5,75.2z"/>
		<path class="st7" d="M490.6,131.1V94.4c0-20.9-12.7-29.9-36.2-30.2c-26.4-0.1-36.1,12.3-37.5,27.7c0,0.1,0,0.3,0,0.3h23
			c1.1-6.3,3.4-10.7,13.6-10.7c11.2,0,13.5,6.2,13.5,12.3v5.3h-12.4c-6.2,0-11.8,0.5-16.8,1.6c-15.6,3.4-24.9,12.3-24.9,27.5
			c0,13.6,8.9,27.4,30.1,27.4c15.5,0,21.4-5.7,24.6-10.6c0,2.3,0.5,6.8,1.3,8.6h23.1C491.3,151.6,490.6,139.5,490.6,131.1z
			 M467.1,116.3c0,11.6-1.9,22.3-17.4,22.3c-8.7,0-12.6-5.3-12.6-11.7c0-8.4,5.4-12.8,20-12.8h9.8v2.3H467.1z"/>
		<path class="st7" d="M569.4,66.2c-0.1,1.4-0.8,6.8-1,9.2c-1.4-4-7.5-11.2-22.6-11.2c-21.5,0-37.7,18.1-38.2,44.9
			c0,0.4,0,0.8,0,1.3c0,23.5,13.1,42.4,36.2,42.4h0.1c12.7,0,20-4.8,24.5-12.3v4.1c0,17.1-3,26.8-18.7,26.8c-9.3,0-13.7-4-15.5-10.1
			h-24.6c0.3,3.1,1,6.9,3,10.8c4.3,8.4,14.1,16.8,36.1,16.8c33.1,0,43.5-17.7,43.5-45.9V91.4c0-3.3,0-6.5,0-9.8
			c0-5.3,0.1-10.6,0.1-15.3C592.3,66.2,569.4,66.2,569.4,66.2z M569.2,108.5c0,14.7-3.9,24.6-18.5,24.6c-10.7,0-18.2-8.9-18.2-23.9
			c0-1.3,0-2.4,0.1-3.5c1-15.1,8.8-22,18.6-22c9.9,0,14.5,4.1,16.5,11.1C568.8,98.5,569.2,103.2,569.2,108.5z"/>
		<path class="st7" d="M635.3,134.6l22.8-26.5l19.7-23V66.2h-68.5v19.1h41.1L622,118.3l-15,17.4v18.2h70.8l2.9-19.1L635.3,134.6
			L635.3,134.6z"/>
		<path class="st7" d="M748.4,66.2c-3.4,11.8-6.2,21.9-8.4,30.3c-4.9,17.9-7.7,28.9-8.9,34.8h-0.1c-0.9-5-4.3-17.6-8.9-33.7
			c-2.8-9.6-5.9-20.2-9.3-31.6h-26l12.1,34.2l19.7,56c-3.3,9.7-7.8,12.7-16.6,12.7c-2,0-4.7-0.1-6.3-0.4v19.5
			c4.1,0.5,9.2,0.6,11.3,0.6c21,0,28-7.5,36.3-32.7l19.6-60l9.8-30.1h-24.3L748.4,66.2L748.4,66.2z"/>
	</g>
	<g class="st6">
		<path class="st7" d="M255.7,172c-36.1,0-60-18.7-64.1-50l-2.4-18.5h20.7c-8.6-7.5-14.5-18.2-14.5-33.6c0-4.7,0.5-9.2,1.6-13.5
			c6.2-23.3,27.7-37.1,57.5-37.1c41.6,0,59,25,61.1,48.5l1.8,17.9h-11.7c8,7.9,13.2,18.7,13.2,34.1v0.8c-0.1,15.5-6.7,29-18.4,38.2
			C289.4,167.5,274.3,172,255.7,172z"/>
		<path class="st7" d="M414,170.1H302.6V88.4c0-7.3,0-15.5-0.1-21.6L302.1,50h51.7c4.5-1.4,9.6-2,14.7-2c7.7,0,14.7,1.6,21,4.7
			c6,2.9,11.2,7.3,15.2,13.1l0.1,0.1c6,8.7,9.1,19.5,9.1,32.2v72H414z"/>
		<path class="st7" d="M442.8,172c-31.9,0-46.4-22.6-46.4-43.8c0-7.3,1.5-14,4.3-19.7h-0.1V91.1l0.1-0.8
			c2.4-26.7,22.4-42.5,53.4-42.5c0.1,0,0.3,0,0.4,0c47.4,0.5,52.4,32.7,52.4,46.5v36.7c0,7.2,0.6,16.5,0.9,19.1l4.9,19.7h-53.8
			C454.3,171.4,448.8,172,442.8,172z M507.7,149.6v0.1C507.7,149.7,507.7,149.7,507.7,149.6z"/>
		<path class="st7" d="M548.7,205.3c-31.1,0-44.6-14.1-50.7-25.8c-2.6-5.2-4.3-10.8-4.8-16.8l-1.4-17.6h8.3
			c-5.8-9.4-8.9-21.2-8.9-34.6V109c0.6-35.3,23.6-61,54.6-61c5.5,0,10.6,0.8,14.8,2h48v16.3c0,2.4,0,4.9,0,7.5
			c0,2.5-0.1,5.2-0.1,7.8v61.5C608.5,194.5,576,205.3,548.7,205.3z M550.4,116.8c0,0,0.1,0,0.3,0c0.5,0,1,0,1.3,0
			c0.4-1.1,0.9-3.5,0.9-8.3c0-4.4-0.4-7-0.6-8.4c-0.3,0-0.6,0-1,0c-0.3,0-0.5,0-0.5,0c-0.4,0.5-1.5,2.4-1.8,6.7l-0.1,0.8
			c0,0.3,0,1.1,0,1.8C548.8,114,550.1,116.3,550.4,116.8z"/>
		<polygon class="st7" points="691.9,170.2 590.7,170.2 590.7,129.6 614.7,101.7 592.9,101.7 592.9,49.9 694.2,49.9 694.2,91.1 
			670.8,118.4 699.7,118.4 		"/>
		<path class="st7" d="M706.9,205c-0.8,0-7.3,0-13.3-0.8l-14.3-1.8v-53.1l18.9,2.9c0.3,0,1,0.1,1.8,0.1L663.5,49.6h61.2l3.5,11.7
			c0.8,2.5,1.5,5,2.3,7.5c0.5-1.6,1-3.4,1.4-5V49.6H795L758.5,161C749.5,189,738.2,205,706.9,205z"/>
	</g>
	<g>
		<g>
			<path class="st1" d="M261.2,82.6c-18.9-4.4-23.8-7.7-23.8-15.7c0-8.3,6.2-12.4,16.3-12.4c15,0,19,7.8,20.2,15h25.4
				c-1.6-17.1-14-33.7-44.9-33.7c-23.1,0-37.6,9.7-41.6,24.9c-0.8,2.9-1.1,6-1.1,9.3c0,15.7,7.8,27.3,39.6,34.7
				c20,4.7,25.5,8.8,25.5,18.2c0,8.6-5.8,13.8-19.2,13.8s-21.9-5.2-24.5-16.8h-25.4c2.8,21.2,18.4,35.8,47.9,35.8
				c30.6,0,46.6-14.3,46.9-35.3c0-0.1,0-0.4,0-0.5C302.6,103.1,295.2,90.5,261.2,82.6z"/>
			<path class="st1" d="M391.5,75.2L391.5,75.2c-2.4-3.4-5.4-6-9.1-7.8l0,0c-4-2-8.7-3-13.8-3c-15.3,0-22.4,7.7-25.4,13.2
				c-0.1-2.8-0.5-8.9-0.9-11.2h-23.5c0.1,6.4,0.1,14.6,0.1,22v65.4h24.3V105c0-15.5,5.9-21.1,16.2-21.1c10.7,0,14,7.2,14,17v52.9
				h24.3V98C397.7,88.5,395.4,80.8,391.5,75.2z"/>
			<path class="st1" d="M490.6,131.1V94.4c0-20.9-12.7-29.9-36.2-30.2c-26.4-0.1-36.1,12.3-37.5,27.7c0,0.1,0,0.3,0,0.3h23
				c1.1-6.3,3.4-10.7,13.6-10.7c11.2,0,13.5,6.2,13.5,12.3v5.3h-12.4c-6.2,0-11.8,0.5-16.8,1.6c-15.6,3.4-24.9,12.3-24.9,27.5
				c0,13.6,8.9,27.4,30.1,27.4c15.5,0,21.4-5.7,24.6-10.6c0,2.3,0.5,6.8,1.3,8.6h23.1C491.3,151.6,490.6,139.5,490.6,131.1z
				 M467.1,116.3c0,11.6-1.9,22.3-17.4,22.3c-8.7,0-12.6-5.3-12.6-11.7c0-8.4,5.4-12.8,20-12.8h9.8v2.3H467.1z"/>
			<path class="st1" d="M569.4,66.2c-0.1,1.4-0.8,6.8-1,9.2c-1.4-4-7.5-11.2-22.6-11.2c-21.5,0-37.7,18.1-38.2,44.9
				c0,0.4,0,0.8,0,1.3c0,23.5,13.1,42.4,36.2,42.4h0.1c12.7,0,20-4.8,24.5-12.3v4.1c0,17.1-3,26.8-18.7,26.8
				c-9.3,0-13.7-4-15.5-10.1h-24.6c0.3,3.1,1,6.9,3,10.8c4.3,8.4,14.1,16.8,36.1,16.8c33.1,0,43.5-17.7,43.5-45.9V91.4
				c0-3.3,0-6.5,0-9.8c0-5.3,0.1-10.6,0.1-15.3C592.3,66.2,569.4,66.2,569.4,66.2z M569.2,108.5c0,14.7-3.9,24.6-18.5,24.6
				c-10.7,0-18.2-8.9-18.2-23.9c0-1.3,0-2.4,0.1-3.5c1-15.1,8.8-22,18.6-22c9.9,0,14.5,4.1,16.5,11.1
				C568.8,98.5,569.2,103.2,569.2,108.5z"/>
			<path class="st1" d="M635.3,134.6l22.8-26.5l19.7-23V66.2h-68.5v19.1h41.1L622,118.3l-15,17.4v18.2h70.8l2.9-19.1L635.3,134.6
				L635.3,134.6z"/>
			<path class="st1" d="M748.4,66.2c-3.4,11.8-6.2,21.9-8.4,30.3c-4.9,17.9-7.7,28.9-8.9,34.8h-0.1c-0.9-5-4.3-17.6-8.9-33.7
				c-2.8-9.6-5.9-20.2-9.3-31.6h-26l12.1,34.2l19.7,56c-3.3,9.7-7.8,12.7-16.6,12.7c-2,0-4.7-0.1-6.3-0.4v19.5
				c4.1,0.5,9.2,0.6,11.3,0.6c21,0,28-7.5,36.3-32.7l19.6-60l9.8-30.1h-24.3L748.4,66.2L748.4,66.2z"/>
		</g>
	</g>
	<path class="st0" d="M213,60.5c17.4,15.2,47.2,38.2,89.7,59.7c-0.3,21-16.3,35.3-46.9,35.3c-29.5,0-45.1-14.6-47.9-35.8h25.4
		c2.6,11.7,11.1,16.8,24.5,16.8s19.2-5.3,19.2-13.8c0-9.4-5.7-13.6-25.5-18.2c-31.7-7.4-39.6-19-39.6-34.7
		C211.8,66.4,212.2,63.3,213,60.5z"/>
	<path class="st0" d="M319.1,128c7.7,3.5,15.8,7,24.3,10.4v15.3h-24.3V128z"/>
	<path class="st0" d="M387.7,153.7h-14.3v-4.4C378.1,150.9,382.8,152.4,387.7,153.7z"/>
	<path class="st3" d="M490.6,94.4v15.3c-20-0.1-37.6-3.5-52.9-8.8c5-1.1,10.6-1.6,16.8-1.6H467V94c0-6.3-2.3-12.3-13.5-12.3
		c-10.2,0-12.4,4.4-13.6,10.7h-22.4c-0.3-0.1-0.4-0.3-0.6-0.3c1.4-15.3,11.1-27.8,37.5-27.7C477.9,64.5,490.6,73.5,490.6,94.4z"/>
	<path class="st3" d="M592.3,66.2c-0.1,4.8-0.1,10.1-0.1,15.3c-7.3,4.8-15.3,9.2-24.4,13.1c-2-6.9-6.7-11.1-16.5-11.1
		c-9.8,0-17.6,7-18.6,22c-7.8,1.6-16.1,2.8-25,3.4c0.5-26.7,16.7-44.9,38.2-44.9c15,0,21.2,7,22.6,11.2c0.1-2.4,0.8-7.7,1-9.2
		L592.3,66.2L592.3,66.2z"/>
	<path class="st2" d="M635.3,134.6h45.5l-2.9,19.1h-70.8v-18.2l15-17.4c12.4-4,24.5-7.4,36.1-10.2L635.3,134.6z"/>
	<path class="st2" d="M592.2,129.4v13.8c0,28-10.3,45.9-43.5,45.9c-21.9,0-31.8-8.4-36.1-16.8c5.7-3.8,11.2-7.4,16.8-10.8h4.8
		c1.8,6,6.2,10.1,15.5,10.1c15.7,0,18.7-9.6,18.7-26.8v-4.1c-4.5,7.5-11.7,12.2-24.5,12.3C560.2,143.6,576.3,135.9,592.2,129.4z"/>
	<path class="st2" d="M762.7,96.3l-19.6,60c-8.3,25.1-15.3,32.7-36.3,32.7c-2.1,0-7.2-0.1-11.3-0.6v-19.5c1.6,0.1,4.3,0.4,6.3,0.4
		c8.9,0,13.3-3.1,16.6-12.7l-19.7-56c8.2-1.1,16-2,23.3-2.6c4.7,16.1,8,28.7,8.9,33.7h0.1c1.3-6,4-17,8.9-34.8
		C748.4,96.3,756,96.2,762.7,96.3z"/>
</g>
<rect x="245.2" y="112.5" class="st4" width="15.7" height="12.4"/>
<rect x="294.7" y="78.7" class="st4" width="19.4" height="14.5"/>
<rect x="349.2" y="95.5" class="st4" width="19.9" height="73.3"/>
</svg>
